<svg xmlns="http://www.w3.org/2000/svg" viewBox="0 0 24 24">
  <path
    d="M12 6.5V3.4c0-.9.7-1.6 1.6-1.6h.3"
    fill="none"
    stroke="#000"
    stroke-linecap="round"
    stroke-linejoin="round"
    stroke-width="4"
  />
  <path
    d="M17.8 21.1c-1.1.7-2.1.8-3 .3-1.7-.8-3.1-.8-4.8 0-1 .5-2 .4-3-.3C4.8 19.5 3.2 15.2 3.4 11.6c.2-3.2 2.4-5.4 5-5.4 1.4 0 2.4.7 3.2.7.7 0 1.8-.7 3.2-.7 2.2 0 4.1 1.5 4.8 3.7-1.6.7-2.4 1.9-2.4 3.5 0 1.8 1 3.1 2.6 3.7-.5 1.6-1.2 3-2 4Z"
    fill="#f3fff7"
    stroke="#000"
    stroke-linecap="round"
    stroke-linejoin="round"
    stroke-width="4"
  />
</svg>
